<svg id="Capa_1" enable-background="new 0 0 512 512" height="512" viewBox="0 0 512 512" width="512" xmlns="http://www.w3.org/2000/svg"><g><path d="m255.708 341.238 17.048-.001c37.658 0 68.186 30.528 68.186 68.186l.002 93.763c0 4.708-3.816 8.524-8.524 8.524h-323.896c-4.707 0-8.524-3.816-8.524-8.524v-93.761c0-37.658 30.528-68.185 68.186-68.185l17.048-.002z" fill="#817d84"/><path d="m245.772 366.808 23.852 52.179c1.909 4.176.167 9.114-3.94 11.167l-11.485 5.742c-6.282 3.141-6.282 12.106 0 15.248l8.27 4.135c5.204 2.602 6.329 9.537 2.215 13.651l-42.78 42.78h-102.284l-42.78-42.78c-4.114-4.114-2.988-11.049 2.215-13.651l8.27-4.135c6.282-3.141 6.282-12.106 0-15.248l-11.485-5.742c-4.107-2.053-5.849-6.991-3.94-11.167l23.852-52.179 74.718 25.575z" fill="#756e79"/><path d="m204.857 415.111-17.048 96.599h-34.094l-17.048-96.6v-36.289l33.803 13.561 34.096-13.561z" fill="#d8e2f3"/><path d="m340.942 409.424c0-37.658-30.528-68.186-68.185-68.186h-17.049-6.612c37.649.01 68.166 30.534 68.166 68.185l.002 93.763c0 4.708-3.816 8.524-8.524 8.524h23.681c4.708 0 8.524-3.816 8.524-8.524z" fill="#756e79"/><path d="m128.142 274.491h85.238v117.891h-85.238z" fill="#f6e2c1"/><path d="m189.699 274.492h23.681v117.89h-23.681z" fill="#f2d0ac"/><path d="m128.142 324.188-42.618 17.051 30.195 75.483c2.011 5.027 8.137 6.929 12.642 3.926l42.4-28.265z" fill="#edf6ff"/><path d="m213.38 324.188 42.618 17.051-30.195 75.483c-2.011 5.027-8.137 6.929-12.642 3.926l-42.4-28.265z" fill="#edf6ff"/><path d="m231.413 331.402-32.028 80.062 13.776 9.183c4.505 3.003 10.631 1.1 12.642-3.926l30.195-75.483z" fill="#d8e2f3"/><g><g><path d="m512 85.527c0-47.589-38.999-86.068-86.781-85.223-46.633.825-83.693 38.583-83.693 85.224 0 31.518 17.115 59.027 42.551 73.773 5.264 3.051 8.591 8.587 8.591 14.671v18.988h68.189v-18.86c0-6.154 3.359-11.758 8.68-14.851 25.388-14.759 42.463-42.241 42.463-73.722z" fill="#ffe07d"/><path d="m425.219.304c-3.478.061-6.896.352-10.256.813 41.45 5.781 73.356 41.367 73.356 84.409 0 31.482-17.075 58.963-42.463 73.722-5.32 3.093-8.679 8.697-8.679 14.851v18.858h23.681v-18.857c0-6.154 3.359-11.758 8.679-14.851 25.388-14.759 42.463-42.241 42.463-73.723 0-47.588-39-86.068-86.781-85.222z" fill="#f1cb86"/><path d="m443.811 111.899h-34.095c-4.265 0-7.722 3.457-7.722 7.722s3.457 7.722 7.722 7.722h9.326v60.468c0 4.265 3.457 7.722 7.722 7.722s7.722-3.457 7.722-7.722v-60.468h9.326c4.265 0 7.722-3.457 7.722-7.722-.001-4.265-3.458-7.722-7.723-7.722z" fill="#f1cb86"/><path d="m444.858 256h-36.189c-8.836 0-16-7.163-16-16v-23.243h68.189v23.243c0 8.836-7.164 16-16 16z" fill="#817d84"/><path d="m437.177 216.757v22.769c0 9.098-7.376 16.473-16.474 16.473h23.681c9.098 0 16.474-7.376 16.474-16.473v-22.769z" fill="#756e79"/><path d="m460.858 221.905c9.415 0 17.047-7.632 17.047-17.047s-7.632-17.047-17.047-17.047h-68.189c-9.415 0-17.047 7.632-17.047 17.047s7.632 17.047 17.047 17.047z" fill="#edf6ff"/><path d="m460.858 187.81h-23.681c9.415 0 17.047 7.632 17.047 17.048 0 9.415-7.632 17.047-17.047 17.047h23.681c9.415 0 17.047-7.632 17.047-17.047s-7.632-17.048-17.047-17.048z" fill="#d8e2f3"/></g></g><g><g><path d="m255.998 152.915h17.047c9.415 0 17.047 7.632 17.047 17.047v34.095c0 9.415-7.632 17.047-17.047 17.047h-17.047l-170.473-.001h-17.047c-9.415 0-17.047-7.632-17.047-17.047v-34.096c0-9.415 7.632-17.047 17.047-17.047h17.047z" fill="#f6e2c1"/><path d="m170.762 53.717-85.236 77.001.001 90.386c0 47.074 38.161 85.236 85.236 85.236 47.074 0 85.236-38.161 85.236-85.236v-90.386z" fill="#f6e2c1"/><g><path d="m136.666 194.728c-4.265 0-7.722-3.457-7.722-7.722v-8.522c0-4.265 3.457-7.722 7.722-7.722s7.722 3.457 7.722 7.722v8.522c0 4.266-3.457 7.722-7.722 7.722z" fill="#817d84"/></g><g><path d="m204.857 194.728c-4.265 0-7.722-3.457-7.722-7.722v-8.522c0-4.265 3.457-7.722 7.722-7.722s7.722 3.457 7.722 7.722v8.522c0 4.266-3.457 7.722-7.722 7.722z" fill="#817d84"/></g><path d="m232.317 109.326v111.779c0 43.055-31.929 78.632-73.396 84.399 3.872.538 7.82.837 11.84.837 47.075 0 85.236-38.161 85.236-85.236l.001-90.386z" fill="#f2d0ac"/><path d="m213.379 50.628h-85.235c-23.538 0-42.619 19.081-42.619 42.619v42.619h17.045c9.415 0 17.047-7.633 17.047-17.048v-17.048h102.285v17.048c0 9.415 7.633 17.048 17.048 17.048h17.047v-42.619c.001-23.538-19.08-42.619-42.618-42.619z" fill="#817d84"/><path d="m213.379 50.628h-23.681c23.538 0 42.619 19.081 42.619 42.619v1.044c-.605-.153-1.236-.242-1.889-.242h-119.332c-4.265 0-7.722 3.457-7.722 7.722s3.457 7.722 7.722 7.722h119.333c.653 0 1.283-.09 1.889-.242v25.276c2.039.862 4.28 1.339 6.633 1.339h17.047v-42.619c0-23.538-19.081-42.619-42.619-42.619z" fill="#756e79"/></g><g><path d="m170.026 264.166c-11.852 0-22.906-6.379-28.846-16.646-2.136-3.692-.874-8.416 2.817-10.551 3.692-2.135 8.416-.874 10.551 2.817 3.188 5.512 9.118 8.937 15.477 8.937 6.358 0 12.288-3.424 15.477-8.934 2.136-3.693 6.862-4.95 10.55-2.816 3.692 2.136 4.953 6.859 2.816 10.55-5.939 10.266-16.991 16.643-28.842 16.643z" fill="#ebae9d"/></g></g></g></svg>